# xmcd
#
# Track frame offsets:
#	150
#	18078
#	32455
#	64690
#	74293
#	94648
#	112805
#	139583
#	156265
#	186868
#	206710
#
# Disc length: 2786 seconds
#
# Revision: 0
# Processed by: cddbd v1.5.2PL0 Copyright (c) Steve Scherf et al.
# Submitted via: audiograbber 1.83.01
#
DISCID=890ae00b
DTITLE=Höyry-Kone - Hyönteisiä Voi Rakastaa
DYEAR=1995
DGENRE=Progressive Rock
TTITLE0=Örn
TTITLE1=Raskaana
TTITLE2=Hämärän Joutomaa
TTITLE3=Pannuhuoneesta
TTITLE4=Luottamus
TTITLE5=Kaivoonkatsoja
TTITLE6=Kosto
TTITLE7=Hätä
TTITLE8=Myrskynmusiikkia
TTITLE9=Hyönteiset
TTITLE10=(Bonus Track)
EXTD=
EXTT0=
EXTT1=
EXTT2=
EXTT3=
EXTT4=
EXTT5=
EXTT6=
EXTT7=
EXTT8=
EXTT9=
EXTT10=
PLAYORDER=
